
<svg
   xmlns:dc="http://purl.org/dc/elements/1.1/"
   xmlns:cc="http://creativecommons.org/ns#"
   xmlns:rdf="http://www.w3.org/1999/02/22-rdf-syntax-ns#"
   xmlns:svg="http://www.w3.org/2000/svg"
   xmlns="http://www.w3.org/2000/svg"
   viewBox="0 0 755.90668 145.30667"
   height="145.30667"
   width="755.90668"
   xml:space="preserve"
   id="svg2"
   version="1.1"><metadata
     id="metadata8"><rdf:RDF><cc:Work
         rdf:about=""><dc:format>image/svg+xml</dc:format><dc:type
           rdf:resource="http://purl.org/dc/dcmitype/StillImage" /></cc:Work></rdf:RDF></metadata><defs
     id="defs6"><clipPath
       id="clipPath20"
       clipPathUnits="userSpaceOnUse"><path
         id="path18"
         d="M 0,0 H 5669 V 1089.79 H 0 Z" /></clipPath></defs><g
     transform="matrix(1.3333333,0,0,-1.3333333,0,145.30667)"
     id="g10"><g
       transform="scale(0.1)"
       id="g12"><g
         id="g14"><g
           clip-path="url(#clipPath20)"
           id="g16"><path
             id="path22"
             style="fill:#ffffff;fill-opacity:1;fill-rule:nonzero;stroke:none"
             d="m 1487.64,645.574 v -57.23 H 1238.57 V 407.027 h 212.85 V 349.848 H 1238.57 V 126.871 h -70.59 v 518.703 h 319.66" /><path
             id="path24"
             style="fill:#ffffff;fill-opacity:1;fill-rule:nonzero;stroke:none"
             d="m 1752.93,126.871 v 366.641 h 36.94 c 6.94,0 11.76,-1.301 14.47,-4.004 2.64,-2.598 4.44,-7.129 5.4,-13.75 l 4.37,-57.18 c 12.54,25.567 28.06,45.547 46.48,59.934 18.47,14.363 40.14,21.57 65.05,21.57 10.07,0 19.23,-1.219 27.45,-3.465 8.21,-2.316 15.79,-5.488 22.81,-9.57 l -8.29,-48.117 c -1.75,-6.075 -5.46,-9.09 -11.23,-9.09 -3.45,0 -8.54,1.14 -15.56,3.465 -7.07,2.226 -16.83,3.398 -29.38,3.398 -22.45,0 -41.18,-6.523 -56.21,-19.558 -15.12,-13.04 -27.73,-32.004 -37.91,-56.809 V 126.871 h -64.39" /><path
             id="path26"
             style="fill:#ffffff;fill-opacity:1;fill-rule:nonzero;stroke:none"
             d="m 2254.62,433.043 c -2.86,-5.273 -7.36,-7.949 -13.4,-7.949 -3.61,0 -7.71,1.375 -12.35,3.972 -4.5,2.657 -10.23,5.625 -16.78,8.907 -6.62,3.234 -14.49,6.23 -23.76,9.015 -9.17,2.774 -19.98,4.18 -32.49,4.18 -10.88,0 -20.66,-1.406 -29.38,-4.18 -8.67,-2.785 -16.08,-6.496 -22.26,-11.425 -6.15,-4.797 -10.89,-10.391 -14.12,-16.797 -3.29,-6.34 -4.87,-13.274 -4.87,-20.801 0,-9.434 2.75,-17.246 8.1,-23.527 5.46,-6.258 12.61,-11.661 21.62,-16.27 8.85,-4.637 19.03,-8.641 30.31,-12.137 11.4,-3.496 23.06,-7.207 35.03,-11.211 11.87,-3.976 23.56,-8.398 34.88,-13.242 11.33,-4.805 21.46,-10.812 30.44,-18.105 8.93,-7.18 16.03,-16.106 21.49,-26.602 5.46,-10.469 8.16,-23.105 8.16,-37.785 0,-16.902 -2.97,-32.539 -9.01,-46.895 -6.09,-14.363 -14.99,-26.796 -26.87,-37.253 -11.76,-10.547 -26.25,-18.79 -43.34,-24.805 -17.2,-6.047 -36.94,-9.094 -59.41,-9.094 -25.6,0 -48.7,4.16 -69.48,12.539 -20.77,8.32 -38.37,18.965 -52.83,32.004 l 15.15,24.648 c 1.91,3.067 4.3,5.508 6.89,7.227 2.65,1.648 6.15,2.52 10.47,2.52 4.43,0 8.98,-1.75 13.81,-5.032 4.84,-3.445 10.67,-7.207 17.59,-11.257 6.78,-4.083 15.1,-7.903 24.96,-11.211 9.75,-3.34 21.99,-5.059 36.72,-5.059 12.51,0 23.5,1.609 32.91,4.812 9.38,3.372 17.25,7.715 23.53,13.282 6.25,5.566 10.97,11.945 13.99,19.179 2.97,7.239 4.5,14.942 4.5,23.164 0,10.118 -2.73,18.516 -8.21,25.168 -5.46,6.629 -12.56,12.247 -21.51,16.961 -8.91,4.766 -19.16,8.801 -30.58,12.344 -11.45,3.496 -23.16,7.16 -35.08,11.027 -11.98,3.895 -23.64,8.262 -35.14,13.25 -11.47,4.875 -21.7,11.125 -30.57,18.653 -8.91,7.472 -16.12,16.66 -21.52,27.656 -5.46,10.977 -8.14,24.277 -8.14,40.012 0,13.965 2.89,27.449 8.67,40.379 5.8,12.832 14.23,24.25 25.28,33.945 11.1,9.805 24.77,17.598 40.96,23.398 16.17,5.801 34.66,8.645 55.38,8.645 24.11,0 45.76,-3.711 64.97,-11.32 19.19,-7.715 35.77,-18.094 49.76,-31.348 l -14.47,-23.582" /><path
             id="path28"
             style="fill:#ffffff;fill-opacity:1;fill-rule:nonzero;stroke:none"
             d="m 2469.97,121.039 c -28.94,0 -51.17,8.137 -66.8,24.277 -15.53,16.192 -23.32,39.395 -23.32,69.875 v 224.375 h -44.15 c -3.92,0 -7.17,1.161 -9.8,3.497 -2.7,2.273 -3.97,5.828 -3.97,10.593 v 25.762 l 60.09,7.629 14.84,113.246 c 0.48,3.633 2.04,6.598 4.69,8.852 2.68,2.332 6.07,3.496 10.12,3.496 h 32.62 V 486.305 h 104.95 V 439.566 H 2444.29 V 219.535 c 0,-15.418 3.71,-26.875 11.13,-34.394 7.58,-7.528 17.28,-11.239 29.04,-11.239 6.76,0 12.56,0.926 17.54,2.703 4.95,1.809 9.22,3.821 12.82,6.047 3.66,2.059 6.68,4.082 9.23,5.938 2.59,1.765 4.76,2.695 6.73,2.695 3.39,0 6.38,-2.062 9.11,-6.144 l 18.76,-30.743 c -11.08,-10.378 -24.48,-18.515 -40.17,-24.48 -15.68,-5.879 -31.87,-8.879 -48.51,-8.879" /><path
             id="path30"
             style="fill:#55abe3;fill-opacity:1;fill-rule:nonzero;stroke:none"
             d="m 2716.12,376.578 h 83.18 c 20.11,0 37.81,2.676 53.09,7.977 15.27,5.351 28.15,12.773 38.54,22.258 10.38,9.539 18.22,20.957 23.52,34.238 5.35,13.301 7.95,27.871 7.95,43.797 0,33.039 -10.22,58.879 -30.57,77.422 -20.4,18.628 -51.2,27.902 -92.53,27.902 h -83.18 z m 0,-55.723 V 126.871 h -69.84 v 518.703 h 153.02 c 32.91,0 61.41,-3.789 85.63,-11.418 24.22,-7.601 44.42,-18.39 60.31,-32.379 15.9,-14.043 27.77,-30.922 35.61,-50.687 7.85,-19.738 11.83,-41.895 11.83,-66.242 0,-24.09 -4.25,-46.239 -12.67,-66.27 -8.49,-19.98 -20.83,-37.254 -37.15,-51.719 -16.27,-14.472 -36.46,-25.781 -60.68,-33.836 -24.05,-8.085 -51.7,-12.168 -82.88,-12.168 h -83.18" /><path
             id="path32"
             style="fill:#55abe3;fill-opacity:1;fill-rule:nonzero;stroke:none"
             d="m 3071.15,126.871 v 366.641 h 36.95 c 6.99,0 11.81,-1.301 14.52,-4.004 2.59,-2.598 4.39,-7.129 5.45,-13.75 l 4.29,-57.18 c 12.51,25.567 27.98,45.547 46.54,59.934 18.39,14.363 40.11,21.57 64.97,21.57 10.11,0 19.28,-1.219 27.45,-3.465 8.26,-2.316 15.84,-5.488 22.83,-9.57 l -8.26,-48.117 c -1.75,-6.075 -5.46,-9.09 -11.29,-9.09 -3.34,0 -8.58,1.14 -15.64,3.465 -6.99,2.226 -16.68,3.398 -29.24,3.398 -22.43,0 -41.18,-6.523 -56.34,-19.558 -14.99,-13.04 -27.56,-32.004 -37.78,-56.809 V 126.871 h -64.45" /><path
             id="path34"
             style="fill:#55abe3;fill-opacity:1;fill-rule:nonzero;stroke:none"
             d="m 3511.33,172.105 c 36.13,0 63.21,12.137 81.07,36.348 17.86,24.246 26.82,58.133 26.82,101.59 0,43.672 -8.96,77.695 -26.82,102.012 -17.86,24.386 -44.94,36.593 -81.07,36.593 -18.39,0 -34.29,-3.144 -47.8,-9.406 -13.52,-6.277 -24.81,-15.312 -33.81,-27.187 -9.02,-11.758 -15.85,-26.336 -20.31,-43.555 -4.45,-17.305 -6.72,-36.727 -6.72,-58.457 0,-21.777 2.27,-41.172 6.72,-58.289 4.46,-17.121 11.29,-31.582 20.31,-43.301 9,-11.711 20.29,-20.715 33.81,-26.945 13.51,-6.278 29.41,-9.403 47.8,-9.403 z m 0,327.188 c 26.76,0 50.97,-4.406 72.55,-13.359 21.62,-8.907 39.95,-21.621 55,-38 15.1,-16.473 26.66,-36.25 34.76,-59.512 8.11,-23.32 12.14,-49.363 12.14,-78.008 0,-29.043 -4.03,-55.059 -12.14,-78.211 -8.1,-23.137 -19.66,-42.98 -34.76,-59.414 -15.05,-16.367 -33.38,-28.984 -55,-37.726 -21.58,-8.856 -45.79,-13.25 -72.55,-13.25 -26.82,0 -51.04,4.394 -72.61,13.25 -21.62,8.742 -39.95,21.359 -55.17,37.726 -15.15,16.434 -26.92,36.277 -35.13,59.414 -8.26,23.152 -12.35,49.168 -12.35,78.211 0,28.645 4.09,54.688 12.35,78.008 8.21,23.262 19.98,43.039 35.13,59.512 15.22,16.379 33.55,29.093 55.17,38 21.57,8.953 45.79,13.359 72.61,13.359" /><path
             id="path36"
             style="fill:#55abe3;fill-opacity:1;fill-rule:nonzero;stroke:none"
             d="m 3765.43,126.871 v 366.641 h 38.31 c 9.28,0 15,-4.453 17.44,-13.352 l 4.61,-37.683 c 13.62,16.64 28.72,30.312 45.52,40.918 16.75,10.644 36.25,15.898 58.46,15.898 24.9,0 44.94,-6.836 60.19,-20.617 15.43,-13.758 26.4,-32.305 33.23,-55.75 4.98,13.25 11.66,24.746 20.03,34.441 8.32,9.649 17.71,17.598 28.04,23.848 10.38,6.308 21.41,10.871 33.17,13.75 11.71,2.941 23.59,4.328 35.62,4.328 19.33,0 36.5,-3.078 51.61,-9.172 15,-6.152 27.87,-15.156 38.37,-26.973 10.49,-11.875 18.5,-26.335 24.06,-43.613 5.51,-17.285 8.26,-37.051 8.26,-59.199 V 126.871 h -64.33 v 233.465 c 0,28.672 -6.31,50.508 -18.81,65.344 -12.56,14.812 -30.79,22.254 -54.75,22.254 -10.59,0 -20.61,-1.856 -30.2,-5.614 -9.48,-3.761 -17.91,-9.277 -25.12,-16.484 -7.31,-7.258 -13.04,-16.348 -17.23,-27.344 -4.19,-10.996 -6.35,-23.633 -6.35,-38.156 V 126.871 h -64.45 v 233.465 c 0,29.465 -5.83,51.406 -17.69,65.871 -11.82,14.473 -29.15,21.727 -51.78,21.727 -15.9,0 -30.63,-4.344 -44.35,-12.871 -13.57,-8.536 -26.08,-20.223 -37.42,-34.93 V 126.871 h -64.44" /><path
             id="path38"
             style="fill:#55abe3;fill-opacity:1;fill-rule:nonzero;stroke:none"
             d="m 4508.14,172.105 c 36.24,0 63.23,12.137 81.14,36.348 17.8,24.246 26.71,58.133 26.71,101.59 0,43.672 -8.91,77.695 -26.71,102.012 -17.91,24.386 -44.9,36.593 -81.14,36.593 -18.34,0 -34.28,-3.144 -47.8,-9.406 -13.51,-6.277 -24.74,-15.312 -33.81,-27.187 -9.01,-11.758 -15.74,-26.336 -20.24,-43.555 -4.51,-17.305 -6.74,-36.727 -6.74,-58.457 0,-21.777 2.23,-41.172 6.74,-58.289 4.5,-17.121 11.23,-31.582 20.24,-43.301 9.07,-11.711 20.3,-20.715 33.81,-26.945 13.52,-6.278 29.46,-9.403 47.8,-9.403 z m 0,327.188 c 26.87,0 51.03,-4.406 72.55,-13.359 21.67,-8.907 39.95,-21.621 55.11,-38 15,-16.473 26.66,-36.25 34.77,-59.512 8.05,-23.32 12.03,-49.363 12.03,-78.008 0,-29.043 -3.98,-55.059 -12.03,-78.211 -8.11,-23.137 -19.77,-42.98 -34.77,-59.414 -15.16,-16.367 -33.44,-28.984 -55.11,-37.726 -21.52,-8.856 -45.68,-13.25 -72.55,-13.25 -26.76,0 -50.98,4.394 -72.54,13.25 -21.63,8.742 -39.97,21.359 -55.17,37.726 -15.22,16.434 -26.98,36.277 -35.2,59.414 -8.15,23.152 -12.29,49.168 -12.29,78.211 0,28.645 4.14,54.688 12.29,78.008 8.22,23.262 19.98,43.039 35.2,59.512 15.2,16.379 33.54,29.093 55.17,38 21.56,8.953 45.78,13.359 72.54,13.359" /><path
             id="path40"
             style="fill:#55abe3;fill-opacity:1;fill-rule:nonzero;stroke:none"
             d="m 4873.43,121.039 c -29.05,0 -51.24,8.137 -66.77,24.277 -15.59,16.192 -23.43,39.395 -23.43,69.875 v 224.375 h -44.14 c -3.82,0 -7.11,1.161 -9.75,3.497 -2.65,2.273 -3.98,5.828 -3.98,10.593 v 25.762 l 60.04,7.629 14.89,113.246 c 0.43,3.633 2.02,6.598 4.67,8.852 2.71,2.332 6.09,3.496 10.18,3.496 h 32.64 V 486.305 h 104.88 V 439.566 H 4847.78 V 219.535 c 0,-15.418 3.66,-26.875 11.18,-34.394 7.42,-7.528 17.07,-11.239 28.93,-11.239 6.68,0 12.62,0.926 17.55,2.703 4.87,1.809 9.27,3.821 12.87,6.047 3.56,2.059 6.68,4.082 9.23,5.938 2.54,1.765 4.76,2.695 6.73,2.695 3.28,0 6.36,-2.062 9,-6.144 l 18.76,-30.743 c -11.07,-10.378 -24.48,-18.515 -40.16,-24.48 -15.64,-5.879 -31.85,-8.879 -48.44,-8.879" /><path
             id="path42"
             style="fill:#55abe3;fill-opacity:1;fill-rule:nonzero;stroke:none"
             d="m 5178.83,451.938 c -31.11,0 -55.59,-9.012 -73.39,-26.942 -17.92,-18.027 -28.99,-43.039 -33.34,-74.836 h 199.47 c 0,15 -2.07,28.645 -6.2,41.125 -4.08,12.352 -10.12,23.133 -18.07,32.168 -7.94,9.09 -17.65,16.082 -29.15,21.035 -11.5,4.93 -24.63,7.45 -39.32,7.45 z m -1.43,47.355 c 22.04,0 42.29,-3.633 60.84,-11.027 18.6,-7.344 34.6,-17.969 48.17,-31.825 13.46,-13.886 24.01,-31.027 31.64,-51.378 7.58,-20.458 11.39,-43.641 11.39,-69.715 0,-10.09 -1.06,-16.907 -3.23,-20.215 -2.18,-3.418 -6.26,-5.09 -12.29,-5.09 h -243.99 c 0.48,-23.211 3.65,-43.348 9.44,-60.516 5.72,-17.168 13.67,-31.367 23.84,-42.793 10.18,-11.523 22.15,-20.109 36.15,-25.722 14.04,-5.676 29.72,-8.535 47.1,-8.535 16.22,0 30.16,1.855 41.81,5.613 11.72,3.762 21.84,7.765 30.22,12.14 8.47,4.286 15.52,8.368 21.14,12.079 5.72,3.742 10.64,5.617 14.73,5.617 5.3,0 9.32,-2.012 12.24,-6.145 l 18.18,-23.582 c -8,-9.59 -17.54,-17.969 -28.62,-25.07 -11.07,-7.149 -23,-12.977 -35.72,-17.586 -12.61,-4.563 -25.75,-8.008 -39.21,-10.344 -13.57,-2.226 -26.92,-3.386 -40.18,-3.386 -25.33,0 -48.7,4.265 -70.05,12.851 -21.36,8.555 -39.85,21.113 -55.37,37.566 -15.53,16.563 -27.72,37.024 -36.36,61.458 -8.74,24.316 -13.09,52.273 -13.09,83.914 0,25.566 3.92,49.464 11.82,71.699 7.89,22.179 19.13,41.418 33.81,57.687 14.73,16.317 32.75,29.11 53.94,38.446 21.25,9.238 45.1,13.859 71.65,13.859" /><path
             id="path44"
             style="fill:#55abe3;fill-opacity:1;fill-rule:nonzero;stroke:none"
             d="m 5411.63,126.871 v 366.641 h 36.89 c 7,0 11.81,-1.301 14.47,-4.004 2.64,-2.598 4.5,-7.129 5.46,-13.75 l 4.34,-57.18 c 12.56,25.567 28.03,45.547 46.42,59.934 18.55,14.363 40.17,21.57 65.08,21.57 10.07,0 19.24,-1.219 27.45,-3.465 8.21,-2.316 15.85,-5.488 22.84,-9.57 l -8.37,-48.117 c -1.7,-6.075 -5.3,-9.09 -11.24,-9.09 -3.34,0 -8.52,1.14 -15.53,3.465 -7.05,2.226 -16.74,3.398 -29.35,3.398 -22.37,0 -41.18,-6.523 -56.23,-19.558 -15.1,-13.04 -27.72,-32.004 -37.83,-56.809 V 126.871 h -64.4" /><path
             id="path46"
             style="fill:#55abe3;fill-opacity:1;fill-rule:nonzero;stroke:none"
             d="m 1506.72,176.559 h 62.05 V 381 c 0,10.762 0.35,21.621 1.07,32.57 l -43.01,-33.203 c -2.44,-1.953 -4.85,-3.359 -7.28,-4.211 -2.42,-0.898 -4.72,-1.297 -6.95,-1.297 -3.65,0 -6.97,0.77 -9.86,2.383 -2.86,1.563 -5.13,3.477 -6.56,5.672 l -20.46,28.137 105.09,87.918 h 52.94 v -322.41 h 68.94 v -49.688 h -195.97 v 49.688" /><path
             id="path48"
             style="fill:#ffffff;fill-opacity:1;fill-rule:nonzero;stroke:none"
             d="m 1647.52,612.641 c 0,-25.539 -20.71,-46.317 -46.26,-46.317 -25.51,0 -46.21,20.778 -46.21,46.317 0,25.543 20.7,46.211 46.21,46.211 25.55,0 46.26,-20.668 46.26,-46.211" /><path
             id="path50"
             style="fill:#ffffff;fill-opacity:1;fill-rule:nonzero;stroke:none"
             d="m 923.867,599.418 c -10.469,26.5 -26.633,49.523 -47.988,68.391 -21.195,18.546 -48.09,33.015 -80.125,43.086 -31.477,9.906 -68.895,14.918 -111.184,14.918 h -74.242 v -93.778 h 74.242 c 48.598,0 84.899,-10.781 108.11,-31.898 23.16,-21.149 34.445,-50.032 34.445,-88.364 0,-18.339 -3.07,-35.382 -9.113,-50.507 -5.992,-14.922 -14.891,-27.871 -26.496,-38.606 -11.711,-10.703 -26.657,-19.316 -44.196,-25.437 -17.968,-6.25 -39.058,-9.328 -62.75,-9.328 h -74.242 v -94.168 h 74.242 c 40.332,0 76.629,5.32 107.981,15.839 31.711,10.606 58.715,25.704 80.414,44.911 21.57,19.269 38.367,42.609 49.711,69.375 11.179,26.632 16.902,56.144 16.902,87.921 0,32.032 -5.324,61.415 -15.711,87.645" /><path
             id="path52"
             style="fill:#55abe3;fill-opacity:1;fill-rule:nonzero;stroke:none"
             d="m 551.688,129.203 v 596.61 H 464.301 L 312.605,598.762 346.262,552.551 c 2.992,-4.664 7.414,-8.641 13.301,-11.852 9.269,-5 20.796,-6.301 32.589,-2.304 4.504,1.648 9.008,4.218 13.141,7.578 l 35.137,27.086 c -0.055,-5.329 -0.133,-10.711 -0.133,-16.118 V 129.203 H 354.949 V 44.7617 h 279.067 v 84.4413 h -82.328" /><path
             id="path54"
             style="fill:#444448;fill-opacity:1;fill-rule:nonzero;stroke:none"
             d="m 446.949,483.102 v -0.188 l 1.43,0.293 v 0.129 c -0.449,-0.051 -0.981,-0.156 -1.43,-0.234" /><path
             id="path56"
             style="fill:#ffffff;fill-opacity:1;fill-rule:nonzero;stroke:none"
             d="m 188.441,310.68 c 11.579,-3.02 23.903,-5.91 37.414,-8.418 41.973,-7.715 65.661,-8.43 140.805,-8.43 v 96.523 c 0,0 -356.5975,-29.382 -261.39,160.997 0,0 -56.6762,-37.645 -56.2544,-97.743 C 54.0469,370.836 134.23,325.922 188.441,310.68" /><path
             id="path58"
             style="fill:#55abe3;fill-opacity:1;fill-rule:nonzero;stroke:none"
             d="M 490.27,882.566 C 223.551,722.766 97.875,543.559 151.902,482.652 c 20.75,-23.351 70.137,-30.949 137.762,-22.843 -115.82,20.136 -46.797,130.257 -46.797,130.257 l 0.16,-0.214 c 48.278,93.113 191.364,224.195 415.157,345.468 82.617,44.782 163.379,81.03 239.398,109.63 C 790.531,1027.9 643.98,974.645 490.27,882.566" /></g></g></g></g></svg>