
<svg xmlns="http://www.w3.org/2000/svg" xmlns:xlink="http://www.w3.org/1999/xlink" width="559" height="100" version="1.1" style=""><rect id="backgroundrect" width="100%" height="100%" x="0" y="0" fill="none" stroke="none"/>

<g class="currentLayer" style=""><title>Layer 1</title><g id="surface1" class="">
<path style=" stroke:none;fill-rule:nonzero;fill:rgb(26.693726%,26.660156%,28.092957%);fill-opacity:1;" d="M143.86352396011353,39.93749975000003 L143.86352396011353,45.660155749999944 L118.95336796011352,45.660155749999944 L118.95336796011352,63.79296875 L140.23852396011353,63.79296875 L140.23852396011353,69.51171875 L118.95336796011352,69.51171875 L118.95336796011352,91.80859375 L111.89477396011353,91.80859375 L111.89477396011353,39.93749975000003 L143.86352396011353,39.93749975000003 " id="svg_1"/>
<path style=" stroke:none;fill-rule:nonzero;fill:rgb(26.693726%,26.660156%,28.092957%);fill-opacity:1;" d="M170.39086796011352,91.80859375 L170.39086796011352,55.144531750000056 L174.08617996011353,55.144531750000056 C174.77758696011352,55.144531750000056 175.26196096011353,55.27343774999997 175.53149296011352,55.54687475000003 C175.79711796011352,55.80468774999997 175.97680496011353,56.25781274999997 176.07055496011353,56.92187475000003 L176.50805496011353,62.63671875 C177.76196096011353,60.082031750000056 179.31664896011353,58.082031750000056 181.15649296011352,56.644531750000056 C183.00414896011353,55.207031750000056 185.17211796011352,54.488281750000056 187.66039896011353,54.488281750000056 C188.66821096011353,54.488281750000056 189.58617996011353,54.60937475000003 190.40649296011352,54.83593774999997 C191.22680496011353,55.066405749999944 191.98461796011352,55.38281274999997 192.68774296011352,55.79296875 L191.85961796011352,60.60156274999997 C191.68383696011352,61.21093774999997 191.31274296011352,61.51171875 190.73461796011352,61.51171875 C190.39086796011352,61.51171875 189.88305496011353,61.39843774999997 189.17992996011353,61.16406274999997 C188.47289896011353,60.941405749999944 187.49633696011352,60.82421875 186.24242996011353,60.82421875 C183.99633696011352,60.82421875 182.12524296011352,61.47656274999997 180.62133696011352,62.78124975000003 C179.10961796011352,64.08593774999997 177.84789896011353,65.98046875 176.82836796011352,68.46093774999997 L176.82836796011352,91.80859375 L170.39086796011352,91.80859375 " id="svg_2"/>
<path style=" stroke:none;fill-rule:nonzero;fill:rgb(26.693726%,26.660156%,28.092957%);fill-opacity:1;" d="M220.55883696011352,61.191405749999944 C220.27367996011353,61.71874975000003 219.82446096011353,61.988281750000056 219.21899296011352,61.988281750000056 C218.85961796011352,61.988281750000056 218.44946096011353,61.847655749999944 217.98461796011352,61.58984375 C217.53539896011353,61.32421875 216.96117996011353,61.02734375 216.30883696011352,60.69921875 C215.64477396011353,60.37499975000003 214.85961796011352,60.07421875 213.92992996011353,59.79687475000003 C213.01196096011353,59.519531750000056 211.93383696011352,59.378905749999944 210.68383696011352,59.378905749999944 C209.59399296011352,59.378905749999944 208.61742996011353,59.519531750000056 207.74242996011353,59.79687475000003 C206.87524296011352,60.07421875 206.13696096011353,60.44531274999997 205.51977396011353,60.941405749999944 C204.90258696011352,61.41796875 204.42992996011353,61.98046875 204.10571096011353,62.62109375 C203.77758696011352,63.253905749999944 203.61742996011353,63.94531274999997 203.61742996011353,64.69921875 C203.61742996011353,65.64453175000006 203.89477396011353,66.42578175000006 204.42992996011353,67.05078175000006 C204.97680496011353,67.67968774999997 205.69164896011353,68.21874975000003 206.59008696011352,68.67968774999997 C207.47680496011353,69.14453175000006 208.49242996011353,69.54296875 209.62133696011352,69.89453175000006 C210.76196096011353,70.24218774999997 211.92602396011353,70.61328175000006 213.12524296011352,71.01562475000003 C214.31274296011352,71.41015574999994 215.48071096011353,71.85546875 216.61352396011353,72.33984375 C217.74633696011352,72.82031274999997 218.75805496011353,73.41796875 219.65649296011352,74.14843774999997 C220.55102396011353,74.86718774999997 221.25805496011353,75.75781274999997 221.80492996011353,76.80859375 C222.35180496011353,77.85546875 222.62133696011352,79.12109375 222.62133696011352,80.58593774999997 C222.62133696011352,82.27734375 222.32446096011353,83.83984375 221.71899296011352,85.27734375 C221.11352396011353,86.71484375 220.22289896011353,87.95703175000006 219.03539896011353,89.00390574999994 C217.85961796011352,90.05859375 216.41039896011353,90.88281274999997 214.69946096011353,91.48437475000003 C212.98071096011353,92.08593774999997 211.00414896011353,92.39062475000003 208.75805496011353,92.39062475000003 C206.19946096011353,92.39062475000003 203.88696096011353,91.97656274999997 201.81274296011352,91.13671875 C199.73461796011352,90.30468774999997 197.97289896011353,89.24218774999997 196.52758696011352,87.93749975000003 L198.04321096011353,85.47265574999994 C198.23461796011352,85.16796875 198.47289896011353,84.92187475000003 198.73071096011353,84.74999975000003 C198.99633696011352,84.58593774999997 199.34789896011353,84.49999975000003 199.77758696011352,84.49999975000003 C200.22289896011353,84.49999975000003 200.67602396011353,84.67187475000003 201.16039896011353,84.99999975000003 C201.64477396011353,85.34765574999994 202.22680496011353,85.72265574999994 202.91821096011353,86.12890574999994 C203.59789896011353,86.53515574999994 204.42992996011353,86.91796875 205.41430496011353,87.24999975000003 C206.39086796011352,87.58203175000006 207.61352396011353,87.75390574999994 209.08617996011353,87.75390574999994 C210.33617996011353,87.75390574999994 211.43774296011352,87.59374975000003 212.37914896011353,87.27343774999997 C213.31664896011353,86.93749975000003 214.10180496011353,86.49999975000003 214.73071096011353,85.94531274999997 C215.35571096011353,85.38671875 215.82836796011352,84.74999975000003 216.12914896011353,84.02734375 C216.42602396011353,83.30468774999997 216.57836796011352,82.53124975000003 216.57836796011352,81.71093774999997 C216.57836796011352,80.69921875 216.30883696011352,79.85937475000003 215.75805496011353,79.19531274999997 C215.21117996011353,78.53124975000003 214.50414896011353,77.96874975000003 213.60961796011352,77.49609375 C212.71508696011352,77.01953175000006 211.69164896011353,76.61718774999997 210.55102396011353,76.26171875 C209.40649296011352,75.91406274999997 208.23461796011352,75.54687475000003 207.04321096011353,75.16015574999994 C205.84399296011352,74.76953175000006 204.67602396011353,74.33593774999997 203.52758696011352,73.83593774999997 C202.37914896011353,73.34765574999994 201.35961796011352,72.72265574999994 200.46899296011352,71.96874975000003 C199.57836796011352,71.22265574999994 198.85961796011352,70.30468774999997 198.32055496011353,69.20312475000003 C197.77367996011353,68.10546875 197.50414896011353,66.77734375 197.50414896011353,65.20312475000003 C197.50414896011353,63.80859375 197.79321096011353,62.457031750000056 198.37133696011352,61.16406274999997 C198.95336796011352,59.88281274999997 199.79321096011353,58.74218774999997 200.89867996011353,57.769531750000056 C202.00805496011353,56.78906274999997 203.37524296011352,56.01171875 204.99633696011352,55.42968774999997 C206.61352396011353,54.85156274999997 208.46117996011353,54.566405749999944 210.53539896011353,54.566405749999944 C212.94555496011353,54.566405749999944 215.10961796011352,54.93749975000003 217.03149296011352,55.69921875 C218.94946096011353,56.46874975000003 220.60961796011352,57.50781274999997 222.00805496011353,58.832031750000056 L220.55883696011352,61.191405749999944 " id="svg_3"/>
<path style=" stroke:none;fill-rule:nonzero;fill:rgb(26.693726%,26.660156%,28.092957%);fill-opacity:1;" d="M242.09399296011352,92.39062475000003 C239.19946096011353,92.39062475000003 236.97680496011353,91.57812475000003 235.41430496011353,89.96484375 C233.86352396011353,88.34374975000003 233.08227396011353,86.02343774999997 233.08227396011353,82.97656274999997 L233.08227396011353,60.53906274999997 L228.66821096011353,60.53906274999997 C228.27758696011352,60.53906274999997 227.94946096011353,60.42187475000003 227.68774296011352,60.191405749999944 C227.41821096011353,59.96093774999997 227.28930496011353,59.60546875 227.28930496011353,59.128905749999944 L227.28930496011353,56.55468774999997 L233.30102396011353,55.79296875 L234.78539896011353,44.46484375 C234.83227396011353,44.10156274999997 234.98852396011353,43.80859375 235.25414896011353,43.582031750000056 C235.51977396011353,43.347655749999944 235.85961796011352,43.23046875 236.26586796011352,43.23046875 L239.52758696011352,43.23046875 L239.52758696011352,55.86718774999997 L250.02367996011353,55.86718774999997 L250.02367996011353,60.53906274999997 L239.52758696011352,60.53906274999997 L239.52758696011352,82.54296875 C239.52758696011352,84.08593774999997 239.89867996011353,85.23046875 240.64086796011352,85.98046875 C241.39867996011353,86.73437475000003 242.36742996011353,87.10546875 243.54321096011353,87.10546875 C244.21899296011352,87.10546875 244.80102396011353,87.01171875 245.29711796011352,86.83593774999997 C245.79321096011353,86.65624975000003 246.21899296011352,86.45312475000003 246.57836796011352,86.23046875 C246.94555496011353,86.02343774999997 247.24633696011352,85.82421875 247.50414896011353,85.63671875 C247.76196096011353,85.46093774999997 247.98071096011353,85.36718774999997 248.17602396011353,85.36718774999997 C248.51586796011352,85.36718774999997 248.81274296011352,85.57421875 249.08617996011353,85.98046875 L250.96117996011353,89.05468774999997 C249.85571096011353,90.09374975000003 248.51586796011352,90.90624975000003 246.94555496011353,91.50390574999994 C245.37914896011353,92.09374975000003 243.75805496011353,92.39062475000003 242.09399296011352,92.39062475000003 " id="svg_4"/>
<path style=" stroke:none;fill-rule:nonzero;fill:rgb(33.518982%,67.050171%,89.065552%);fill-opacity:1;" d="M266.7111799601135,66.83984375 L275.0275869601135,66.83984375 C277.0393049601135,66.83984375 278.8088369601135,66.57031274999997 280.3361799601135,66.03906274999997 C281.8635239601135,65.50390574999994 283.1525869601135,64.76171875 284.1916489601135,63.816405749999944 C285.2307109601135,62.85937475000003 286.0119609601135,61.71874975000003 286.5432109601135,60.39062475000003 C287.07836796011355,59.06249975000003 287.3361799601135,57.60546875 287.3361799601135,56.01171875 C287.3361799601135,52.707031750000056 286.3166489601135,50.12499975000003 284.28149296011355,48.269531750000056 C282.2424299601135,46.40624975000003 279.1603989601135,45.48046875 275.0275869601135,45.48046875 L266.7111799601135,45.48046875 zM266.7111799601135,72.41015574999994 L266.7111799601135,91.80859375 L259.7268049601135,91.80859375 L259.7268049601135,39.93749975000003 L275.0275869601135,39.93749975000003 C278.3205549601135,39.93749975000003 281.1682109601135,40.316405749999944 283.5900869601135,41.082031750000056 C286.0119609601135,41.83984375 288.03149296011355,42.91796875 289.6213369601135,44.32031274999997 C291.2111799601135,45.722655749999944 292.3986799601135,47.410155749999944 293.1838369601135,49.38671875 C293.96899296011355,51.35937475000003 294.3674299601135,53.57812475000003 294.3674299601135,56.01171875 C294.3674299601135,58.42187475000003 293.9416489601135,60.63671875 293.0978989601135,62.63671875 C292.25024296011355,64.63671875 291.01586796011355,66.36328175000006 289.3830549601135,67.80859375 C287.7580549601135,69.25781274999997 285.7385239601135,70.38671875 283.3166489601135,71.19531274999997 C280.9103989601135,72.00390574999994 278.1447739601135,72.41015574999994 275.0275869601135,72.41015574999994 L266.7111799601135,72.41015574999994 " id="svg_5"/>
<path style=" stroke:none;fill-rule:nonzero;fill:rgb(33.518982%,67.050171%,89.065552%);fill-opacity:1;" d="M302.2111799601135,91.80859375 L302.2111799601135,55.144531750000056 L305.90649296011355,55.144531750000056 C306.6057109601135,55.144531750000056 307.0900869601135,55.27343774999997 307.35961796011355,55.54687475000003 C307.6174299601135,55.80468774999997 307.79711796011355,56.25781274999997 307.90649296011355,56.92187475000003 L308.3322739601135,62.63671875 C309.5861799601135,60.082031750000056 311.1330549601135,58.082031750000056 312.9885239601135,56.644531750000056 C314.82836796011355,55.207031750000056 317.00024296011355,54.488281750000056 319.48461796011355,54.488281750000056 C320.4963369601135,54.488281750000056 321.4143049601135,54.60937475000003 322.2307109601135,54.83593774999997 C323.0549299601135,55.066405749999944 323.81274296011355,55.38281274999997 324.5119609601135,55.79296875 L323.68774296011355,60.60156274999997 C323.5119609601135,61.21093774999997 323.14086796011355,61.51171875 322.5588369601135,61.51171875 C322.2228989601135,61.51171875 321.6994609601135,61.39843774999997 320.9924299601135,61.16406274999997 C320.2932109601135,60.941405749999944 319.3244609601135,60.82421875 318.0705549601135,60.82421875 C315.82836796011355,60.82421875 313.95336796011355,61.47656274999997 312.43774296011355,62.78124975000003 C310.93774296011355,64.08593774999997 309.6799299601135,65.98046875 308.65649296011355,68.46093774999997 L308.65649296011355,91.80859375 L302.2111799601135,91.80859375 " id="svg_6"/>
<path style=" stroke:none;fill-rule:nonzero;fill:rgb(33.518982%,67.050171%,89.065552%);fill-opacity:1;" d="M346.2307109601135,87.28515574999994 C349.84399296011355,87.28515574999994 352.5510239601135,86.07031274999997 354.3361799601135,83.65234375 C356.12524296011355,81.22656274999997 357.0197739601135,77.83593774999997 357.0197739601135,73.49218774999997 C357.0197739601135,69.12499975000003 356.12524296011355,65.72265574999994 354.3361799601135,63.28906274999997 C352.5510239601135,60.85156274999997 349.84399296011355,59.63281274999997 346.2307109601135,59.63281274999997 C344.39086796011355,59.63281274999997 342.8010239601135,59.94531274999997 341.4494609601135,60.57031274999997 C340.0978989601135,61.19921875 338.96899296011355,62.10156274999997 338.0705549601135,63.28906274999997 C337.1682109601135,64.46484375 336.48461796011355,65.92578175000006 336.0393049601135,67.64453175000006 C335.59399296011355,69.37499975000003 335.3674299601135,71.32031274999997 335.3674299601135,73.49218774999997 C335.3674299601135,75.66796875 335.59399296011355,77.60937475000003 336.0393049601135,79.32031274999997 C336.48461796011355,81.03124975000003 337.1682109601135,82.48046875 338.0705549601135,83.65234375 C338.96899296011355,84.82031274999997 340.0978989601135,85.72265574999994 341.4494609601135,86.34374975000003 C342.8010239601135,86.97265574999994 344.39086796011355,87.28515574999994 346.2307109601135,87.28515574999994 zM346.2307109601135,54.566405749999944 C348.90649296011355,54.566405749999944 351.32836796011355,55.00781274999997 353.48461796011355,55.90234375 C355.6486799601135,56.79296875 357.4807109601135,58.066405749999944 358.98461796011355,59.70312475000003 C360.4963369601135,61.35156274999997 361.6525869601135,63.32812475000003 362.4611799601135,65.65234375 C363.2736799601135,67.98437475000003 363.6760239601135,70.58984375 363.6760239601135,73.45312475000003 C363.6760239601135,76.35937475000003 363.2736799601135,78.96093774999997 362.4611799601135,81.27734375 C361.6525869601135,83.58984375 360.4963369601135,85.57421875 358.98461796011355,87.21874975000003 C357.4807109601135,88.85546875 355.6486799601135,90.11718774999997 353.48461796011355,90.98828175000006 C351.32836796011355,91.87499975000003 348.90649296011355,92.31640574999994 346.2307109601135,92.31640574999994 C343.54711796011355,92.31640574999994 341.12524296011355,91.87499975000003 338.96899296011355,90.98828175000006 C336.8088369601135,90.11718774999997 334.9768049601135,88.85546875 333.45336796011355,87.21874975000003 C331.93774296011355,85.57421875 330.7619609601135,83.58984375 329.9416489601135,81.27734375 C329.1135239601135,78.96093774999997 328.70336796011355,76.35937475000003 328.70336796011355,73.45312475000003 C328.70336796011355,70.58984375 329.1135239601135,67.98437475000003 329.9416489601135,65.65234375 C330.7619609601135,63.32812475000003 331.93774296011355,61.35156274999997 333.45336796011355,59.70312475000003 C334.9768049601135,58.066405749999944 336.8088369601135,56.79296875 338.96899296011355,55.90234375 C341.12524296011355,55.00781274999997 343.54711796011355,54.566405749999944 346.2307109601135,54.566405749999944 " id="svg_7"/>
<path style=" stroke:none;fill-rule:nonzero;fill:rgb(33.518982%,67.050171%,89.065552%);fill-opacity:1;" d="M371.64086796011355,91.80859375 L371.64086796011355,55.144531750000056 L375.4728989601135,55.144531750000056 C376.3986799601135,55.144531750000056 376.9728989601135,55.58984375 377.2150869601135,56.48046875 L377.6760239601135,60.24999975000003 C379.0393049601135,58.58593774999997 380.54711796011355,57.21874975000003 382.2307109601135,56.15624975000003 C383.9025869601135,55.09374975000003 385.8557109601135,54.566405749999944 388.0744609601135,54.566405749999944 C390.5666489601135,54.566405749999944 392.5705549601135,55.24999975000003 394.09399296011355,56.628905749999944 C395.6369609601135,58.003905749999944 396.73461796011355,59.85937475000003 397.4182109601135,62.20312475000003 C397.9143049601135,60.878905749999944 398.5822739601135,59.73046875 399.4182109601135,58.75781274999997 C400.25024296011355,57.79296875 401.1916489601135,56.99999975000003 402.2228989601135,56.37499975000003 C403.2619609601135,55.74218774999997 404.3635239601135,55.28906274999997 405.5393049601135,54.99999975000003 C406.7111799601135,54.707031750000056 407.8986799601135,54.566405749999944 409.1018049601135,54.566405749999944 C411.0353989601135,54.566405749999944 412.7541489601135,54.87499975000003 414.2619609601135,55.48437475000003 C415.7619609601135,56.097655749999944 417.0510239601135,56.99999975000003 418.1018049601135,58.17968774999997 C419.1486799601135,59.36718774999997 419.9494609601135,60.816405749999944 420.5080549601135,62.54296875 C421.0588369601135,64.26953175000006 421.3322739601135,66.24609375 421.3322739601135,68.46093774999997 L421.3322739601135,91.80859375 L414.8986799601135,91.80859375 L414.8986799601135,68.46093774999997 C414.8986799601135,65.59374975000003 414.2697739601135,63.410155749999944 413.0197739601135,61.92968774999997 C411.7619609601135,60.44531274999997 409.9416489601135,59.70312475000003 407.5432109601135,59.70312475000003 C406.48461796011355,59.70312475000003 405.48461796011355,59.88671875 404.5236799601135,60.26562475000003 C403.5744609601135,60.64062475000003 402.73461796011355,61.191405749999944 402.0119609601135,61.91406274999997 C401.28149296011355,62.63671875 400.7072739601135,63.54687475000003 400.2893049601135,64.64843774999997 C399.8713369601135,65.74609375 399.6525869601135,67.01171875 399.6525869601135,68.46093774999997 L399.6525869601135,91.80859375 L393.2072739601135,91.80859375 L393.2072739601135,68.46093774999997 C393.2072739601135,65.51562475000003 392.62524296011355,63.32031274999997 391.4416489601135,61.87499975000003 C390.2580549601135,60.42968774999997 388.5236799601135,59.70312475000003 386.2619609601135,59.70312475000003 C384.67211796011355,59.70312475000003 383.1994609601135,60.13671875 381.82836796011355,60.988281750000056 C380.46899296011355,61.84374975000003 379.21899296011355,63.01171875 378.0861799601135,64.48437475000003 L378.0861799601135,91.80859375 L371.64086796011355,91.80859375 " id="svg_8"/>
<path style=" stroke:none;fill-rule:nonzero;fill:rgb(33.518982%,67.050171%,89.065552%);fill-opacity:1;" d="M445.9103989601135,87.28515574999994 C449.5353989601135,87.28515574999994 452.23461796011355,86.07031274999997 454.0275869601135,83.65234375 C455.8049299601135,81.22656274999997 456.6955549601135,77.83593774999997 456.6955549601135,73.49218774999997 C456.6955549601135,69.12499975000003 455.8049299601135,65.72265574999994 454.0275869601135,63.28906274999997 C452.23461796011355,60.85156274999997 449.5353989601135,59.63281274999997 445.9103989601135,59.63281274999997 C444.07836796011355,59.63281274999997 442.48461796011355,59.94531274999997 441.1330549601135,60.57031274999997 C439.78149296011355,61.19921875 438.65649296011355,62.10156274999997 437.75024296011355,63.28906274999997 C436.8518049601135,64.46484375 436.1760239601135,65.92578175000006 435.7268049601135,67.64453175000006 C435.2775869601135,69.37499975000003 435.0510239601135,71.32031274999997 435.0510239601135,73.49218774999997 C435.0510239601135,75.66796875 435.2775869601135,77.60937475000003 435.7268049601135,79.32031274999997 C436.1760239601135,81.03124975000003 436.8518049601135,82.48046875 437.75024296011355,83.65234375 C438.65649296011355,84.82031274999997 439.78149296011355,85.72265574999994 441.1330549601135,86.34374975000003 C442.48461796011355,86.97265574999994 444.07836796011355,87.28515574999994 445.9103989601135,87.28515574999994 zM445.9103989601135,54.566405749999944 C448.5978989601135,54.566405749999944 451.01586796011355,55.00781274999997 453.1682109601135,55.90234375 C455.3322739601135,56.79296875 457.1603989601135,58.066405749999944 458.6760239601135,59.70312475000003 C460.1760239601135,61.35156274999997 461.34399296011355,63.32812475000003 462.15649296011355,65.65234375 C462.9611799601135,67.98437475000003 463.35961796011355,70.58984375 463.35961796011355,73.45312475000003 C463.35961796011355,76.35937475000003 462.9611799601135,78.96093774999997 462.15649296011355,81.27734375 C461.34399296011355,83.58984375 460.1760239601135,85.57421875 458.6760239601135,87.21874975000003 C457.1603989601135,88.85546875 455.3322739601135,90.11718774999997 453.1682109601135,90.98828175000006 C451.01586796011355,91.87499975000003 448.5978989601135,92.31640574999994 445.9103989601135,92.31640574999994 C443.23461796011355,92.31640574999994 440.81274296011355,91.87499975000003 438.65649296011355,90.98828175000006 C436.4963369601135,90.11718774999997 434.6603989601135,88.85546875 433.14086796011355,87.21874975000003 C431.6174299601135,85.57421875 430.4416489601135,83.58984375 429.6213369601135,81.27734375 C428.8049299601135,78.96093774999997 428.39086796011355,76.35937475000003 428.39086796011355,73.45312475000003 C428.39086796011355,70.58984375 428.8049299601135,67.98437475000003 429.6213369601135,65.65234375 C430.4416489601135,63.32812475000003 431.6174299601135,61.35156274999997 433.14086796011355,59.70312475000003 C434.6603989601135,58.066405749999944 436.4963369601135,56.79296875 438.65649296011355,55.90234375 C440.81274296011355,55.00781274999997 443.23461796011355,54.566405749999944 445.9103989601135,54.566405749999944 " id="svg_9"/>
<path style=" stroke:none;fill-rule:nonzero;fill:rgb(33.518982%,67.050171%,89.065552%);fill-opacity:1;" d="M482.4416489601135,92.39062475000003 C479.5353989601135,92.39062475000003 477.3166489601135,91.57812475000003 475.7619609601135,89.96484375 C474.20336796011355,88.34374975000003 473.42211796011355,86.02343774999997 473.42211796011355,82.97656274999997 L473.42211796011355,60.53906274999997 L469.0080549601135,60.53906274999997 C468.62524296011355,60.53906274999997 468.29711796011355,60.42187475000003 468.03149296011355,60.191405749999944 C467.76586796011355,59.96093774999997 467.6330549601135,59.60546875 467.6330549601135,59.128905749999944 L467.6330549601135,56.55468774999997 L473.6369609601135,55.79296875 L475.12524296011355,44.46484375 C475.1682109601135,44.10156274999997 475.32836796011355,43.80859375 475.59399296011355,43.582031750000056 C475.8635239601135,43.347655749999944 476.20336796011355,43.23046875 476.6135239601135,43.23046875 L479.87524296011355,43.23046875 L479.87524296011355,55.86718774999997 L490.3635239601135,55.86718774999997 L490.3635239601135,60.53906274999997 L479.87524296011355,60.53906274999997 L479.87524296011355,82.54296875 C479.87524296011355,84.08593774999997 480.2424299601135,85.23046875 480.9924299601135,85.98046875 C481.73461796011355,86.73437475000003 482.6994609601135,87.10546875 483.8869609601135,87.10546875 C484.5549299601135,87.10546875 485.1486799601135,87.01171875 485.64086796011355,86.83593774999997 C486.1291489601135,86.65624975000003 486.5705549601135,86.45312475000003 486.9299299601135,86.23046875 C487.2853989601135,86.02343774999997 487.5978989601135,85.82421875 487.8518049601135,85.63671875 C488.1057109601135,85.46093774999997 488.32836796011355,85.36718774999997 488.5236799601135,85.36718774999997 C488.8518049601135,85.36718774999997 489.1603989601135,85.57421875 489.4260239601135,85.98046875 L491.3010239601135,89.05468774999997 C490.1955549601135,90.09374975000003 488.8518049601135,90.90624975000003 487.2853989601135,91.50390574999994 C485.71899296011355,92.09374975000003 484.1018049601135,92.39062475000003 482.4416489601135,92.39062475000003 " id="svg_10"/>
<path style=" stroke:none;fill-rule:nonzero;fill:rgb(33.518982%,67.050171%,89.065552%);fill-opacity:1;" d="M512.9807109601135,59.300781750000056 C509.8713369601136,59.300781750000056 507.4221179601135,60.20312475000003 505.64086796011355,61.99609375 C503.8518049601135,63.800781750000056 502.7424299601135,66.30078175000006 502.3088369601135,69.48046875 L522.2541489601135,69.48046875 C522.2541489601135,67.98046875 522.0471179601135,66.61718774999997 521.6330549601136,65.36718774999997 C521.2268049601136,64.13281274999997 520.6213369601136,63.05468774999997 519.8283679601135,62.15234375 C519.0353989601135,61.24218774999997 518.0627429601135,60.54296875 516.9143049601136,60.04687475000003 C515.7619609601135,59.55468774999997 514.4494609601135,59.300781750000056 512.9807109601135,59.300781750000056 zM512.8361799601136,54.566405749999944 C515.0432109601135,54.566405749999944 517.0666489601135,54.92968774999997 518.9221179601135,55.66796875 C520.7814929601135,56.40234375 522.3830549601136,57.46484375 523.7385239601135,58.85156274999997 C525.0861799601136,60.24218774999997 526.1408679601135,61.95312475000003 526.9025869601136,63.988281750000056 C527.6603989601135,66.03515574999994 528.0432109601135,68.35546875 528.0432109601135,70.96093774999997 C528.0432109601135,71.96874975000003 527.9377429601135,72.65234375 527.7189929601135,72.98437475000003 C527.5002429601135,73.32421875 527.0939929601135,73.49218774999997 526.4885239601135,73.49218774999997 L502.0900869601135,73.49218774999997 C502.1369609601135,75.81249975000003 502.4572739601135,77.82812475000003 503.0353989601135,79.54296875 C503.6057109601135,81.26171875 504.4025869601135,82.67968774999997 505.4182109601135,83.82421875 C506.43774296011355,84.97656274999997 507.63305496011355,85.83203175000006 509.0353989601135,86.39453175000006 C510.4377429601135,86.96093774999997 512.0041489601135,87.24999975000003 513.7424299601136,87.24999975000003 C515.3674299601136,87.24999975000003 516.7580549601136,87.06249975000003 517.9260239601135,86.68749975000003 C519.0978989601135,86.31249975000003 520.1096179601135,85.91015574999994 520.9455549601136,85.47265574999994 C521.7932109601135,85.04296875 522.5002429601135,84.63671875 523.0627429601135,84.26562475000003 C523.6330549601136,83.89062475000003 524.1252429601135,83.70312475000003 524.5353989601135,83.70312475000003 C525.0627429601135,83.70312475000003 525.4650869601136,83.90624975000003 525.7580549601136,84.31640574999994 L527.5744609601135,86.67578175000006 C526.7775869601136,87.63671875 525.8205549601136,88.47265574999994 524.7150869601136,89.18359375 C523.6057109601135,89.89843774999997 522.4143049601136,90.48046875 521.1408679601135,90.94140574999994 C519.8791489601135,91.39843774999997 518.5666489601135,91.74218774999997 517.2189929601135,91.97656274999997 C515.8635239601135,92.19921875 514.5275869601136,92.31640574999994 513.2033679601135,92.31640574999994 C510.66821096011347,92.31640574999994 508.3322739601135,91.88671875 506.1994609601135,91.03124975000003 C504.06274296011355,90.17578175000006 502.2111799601135,88.91796875 500.6603989601135,87.27343774999997 C499.10961796011355,85.61718774999997 497.8869609601135,83.57031274999997 497.0236799601135,81.12890574999994 C496.1525869601135,78.69531274999997 495.7150869601135,75.89843774999997 495.7150869601135,72.73437475000003 C495.7150869601135,70.17968774999997 496.10961796011355,67.78906274999997 496.8986799601135,65.56640574999994 C497.68774296011355,63.347655749999944 498.81274296011355,61.425781750000056 500.2775869601135,59.79687475000003 C501.75024296011355,58.16406274999997 503.5549299601135,56.88671875 505.67211796011355,55.95312475000003 C507.7971179601135,55.02734375 510.1838369601136,54.566405749999944 512.8361799601136,54.566405749999944 " id="svg_11"/>
<path style=" stroke:none;fill-rule:nonzero;fill:rgb(33.518982%,67.050171%,89.065552%);fill-opacity:1;" d="M536.2619609601135,91.80859375 L536.2619609601135,55.144531750000056 L539.9494609601135,55.144531750000056 C540.6486799601136,55.144531750000056 541.1291489601135,55.27343774999997 541.3986799601136,55.54687475000003 C541.6603989601135,55.80468774999997 541.8478989601135,56.25781274999997 541.9416489601135,56.92187475000003 L542.3752429601135,62.63671875 C543.6330549601136,60.082031750000056 545.1799299601136,58.082031750000056 547.0197739601135,56.644531750000056 C548.8752429601135,55.207031750000056 551.0353989601135,54.488281750000056 553.5275869601136,54.488281750000056 C554.5353989601135,54.488281750000056 555.4494609601135,54.60937475000003 556.2736799601136,54.83593774999997 C557.0939929601135,55.066405749999944 557.8557109601135,55.38281274999997 558.5549299601136,55.79296875 L557.7189929601135,60.60156274999997 C557.5471179601135,61.21093774999997 557.1877429601135,61.51171875 556.5939929601135,61.51171875 C556.2619609601135,61.51171875 555.7424299601136,61.39843774999997 555.0432109601135,61.16406274999997 C554.3361799601136,60.941405749999944 553.3674299601136,60.82421875 552.1057109601135,60.82421875 C549.8713369601136,60.82421875 547.9885239601135,61.47656274999997 546.4846179601135,62.78124975000003 C544.9728989601135,64.08593774999997 543.7111799601136,65.98046875 542.6994609601135,68.46093774999997 L542.6994609601135,91.80859375 L536.2619609601135,91.80859375 " id="svg_12"/>
<path style=" stroke:none;fill-rule:nonzero;fill:rgb(33.518982%,67.050171%,89.065552%);fill-opacity:1;" d="M145.76977396011353,86.83984375 L151.97680496011353,86.83984375 L151.97680496011353,66.39453175000006 C151.97680496011353,65.32031274999997 152.00805496011353,64.23437475000003 152.08227396011353,63.14062475000003 L147.78149296011352,66.46093774999997 C147.53539896011353,66.65624975000003 147.29711796011352,66.79687475000003 147.05102396011353,66.87890574999994 C146.81274296011352,66.96874975000003 146.58227396011353,67.01171875 146.35961796011352,67.01171875 C145.99242996011353,67.01171875 145.66039896011353,66.93359375 145.37133696011352,66.77343774999997 C145.08617996011353,66.61718774999997 144.85961796011352,66.42578175000006 144.71508696011352,66.20312475000003 L142.66821096011353,63.39062475000003 L153.17992996011353,54.597655749999944 L158.47289896011353,54.597655749999944 L158.47289896011353,86.83984375 L165.36742996011353,86.83984375 L165.36742996011353,91.80859375 L145.76977396011353,91.80859375 L145.76977396011353,86.83984375 " id="svg_13"/>
<path style=" stroke:none;fill-rule:nonzero;fill:rgb(26.693726%,26.660156%,28.092957%);fill-opacity:1;" d="M159.85180496011353,43.23046875 C159.85180496011353,45.785155749999944 157.77758696011352,47.863281750000056 155.22289896011353,47.863281750000056 C152.67211796011352,47.863281750000056 150.60180496011353,45.785155749999944 150.60180496011353,43.23046875 C150.60180496011353,40.675781750000056 152.67211796011352,38.60937475000003 155.22289896011353,38.60937475000003 C157.77758696011352,38.60937475000003 159.85180496011353,40.675781750000056 159.85180496011353,43.23046875 " id="svg_14"/>
<path style=" stroke:none;fill-rule:nonzero;fill:rgb(26.693726%,26.660156%,28.092957%);fill-opacity:1;" d="M87.48461796011352,44.55468774999997 C86.43774296011352,41.90234375 84.82055496011353,39.60156274999997 82.68774296011352,37.71484375 C80.56664896011353,35.85937475000003 77.87524296011352,34.41406274999997 74.67211796011352,33.40624975000003 C71.52367996011353,32.41406274999997 67.78539896011353,31.91406274999997 63.554929960113526,31.91406274999997 L56.129148960113525,31.91406274999997 L56.129148960113525,41.29296875 L63.554929960113526,41.29296875 C68.41430496011353,41.29296875 72.04321096011353,42.37109375 74.36742996011353,44.48046875 C76.68383696011352,46.597655749999944 77.80883696011352,49.48437475000003 77.80883696011352,53.32031274999997 C77.80883696011352,55.15234375 77.50414896011353,56.85546875 76.89867996011353,58.37109375 C76.30102396011353,59.863281750000056 75.41039896011353,61.15624975000003 74.25024296011352,62.23046875 C73.07836796011352,63.300781750000056 71.58227396011353,64.16015574999994 69.82836796011352,64.77343774999997 C68.03149296011352,65.39843774999997 65.92602396011353,65.70703175000006 63.554929960113526,65.70703175000006 L56.129148960113525,65.70703175000006 L56.129148960113525,75.12499975000003 L63.554929960113526,75.12499975000003 C67.58617996011353,75.12499975000003 71.21899296011352,74.58984375 74.35180496011353,73.53906274999997 C77.52367996011353,72.48046875 80.22289896011353,70.96874975000003 82.39477396011353,69.04687475000003 C84.55102396011353,67.12109375 86.23071096011353,64.78906274999997 87.36742996011353,62.10937475000003 C88.48461796011352,59.44921875 89.05492996011353,56.49609375 89.05492996011353,53.32031274999997 C89.05492996011353,50.11718774999997 88.52367996011353,47.175781750000056 87.48461796011352,44.55468774999997 " id="svg_15"/>
<path style=" stroke:none;fill-rule:nonzero;fill:rgb(33.518982%,67.050171%,89.065552%);fill-opacity:1;" d="M50.265867960113525,91.57421875 L50.265867960113525,31.91406274999997 L41.527586960113524,31.91406274999997 L26.359617960113525,44.62109375 L29.722898960113525,49.24218774999997 C30.023679960113526,49.707031750000056 30.465086960113524,50.10546875 31.054929960113526,50.425781750000056 C31.980710960113527,50.925781750000056 33.133054960113526,51.05468774999997 34.312742960113525,50.65624975000003 C34.76196096011353,50.49218774999997 35.215086960113524,50.23437475000003 35.629148960113525,49.89843774999997 L39.140867960113525,47.191405749999944 C39.13696096011353,47.722655749999944 39.129148960113525,48.26171875 39.129148960113525,48.800781750000056 L39.129148960113525,91.57421875 L30.593992960113525,91.57421875 L30.593992960113525,100.01953175000006 L58.500242960113525,100.01953175000006 L58.500242960113525,91.57421875 L50.265867960113525,91.57421875 " id="svg_16"/>
<path style=" stroke:none;fill-rule:nonzero;fill:rgb(26.693726%,26.660156%,28.092957%);fill-opacity:1;" d="M39.79321096011353,56.18749975000003 L39.79321096011353,56.20312475000003 L39.937742960113525,56.175781750000056 L39.937742960113525,56.16406274999997 C39.890867960113525,56.16796875 39.836179960113526,56.17968774999997 39.79321096011353,56.18749975000003 " id="svg_17"/>
<path style=" stroke:none;fill-rule:nonzero;fill:rgb(26.693726%,26.660156%,28.092957%);fill-opacity:1;" d="M13.941648960113525,73.42968774999997 C15.101804960113526,73.73046875 16.332273960113525,74.01953175000006 17.683836960113524,74.26953175000006 C21.879148960113525,75.04296875 24.250242960113525,75.11328175000006 31.761960960113527,75.11328175000006 L31.761960960113527,65.46093774999997 C31.761960960113527,65.46093774999997 -3.8942890398864747,68.39843774999997 5.625242960113525,49.35937475000003 C5.625242960113525,49.35937475000003 -0.04272603988647461,53.12499975000003 0.00024296011352564761,59.13671875 C0.5041489601135254,67.41406274999997 8.519773960113525,71.90234375 13.941648960113525,73.42968774999997 " id="svg_18"/>
<path style=" stroke:none;fill-rule:nonzero;fill:rgb(33.518982%,67.050171%,89.065552%);fill-opacity:1;" d="M44.125242960113525,16.238281750000056 C17.453367960113525,32.21874975000003 4.886960960113525,50.14062475000003 10.289304960113526,56.23046875 C12.363523960113525,58.566405749999944 17.301023960113525,59.32421875 24.062742960113525,58.51562475000003 C12.480710960113527,56.49999975000003 19.383054960113526,45.488281750000056 19.383054960113526,45.488281750000056 L19.398679960113526,45.51171875 C24.226804960113526,36.19921875 38.535398960113525,23.08984375 60.91821096011353,10.96484375 C69.17992996011353,6.484374750000029 77.25414896011353,2.859374750000029 84.85571096011353,-2.4999997094710125e-7 C74.15258696011352,1.7070317500000556 59.496336960113524,7.031249750000029 44.125242960113525,16.238281750000056 " id="svg_19"/>
</g></g></svg>